# xmcd
#
# Track frame offsets:
#	150
#	14713
#	27257
#
# Disc length: 539 seconds
#
# Revision: 0
# Processed by: cddbd v1.5.2PL0 Copyright (c) Steve Scherf et al.
# Submitted via: audiograbber 1.83.01
#
DISCID=1e021903
DTITLE=Ambush - Ambush EP
DYEAR=1996
DGENRE=Country
TTITLE0=Let's Go Crazy Girl
TTITLE1=Since She Got Back From Texas
TTITLE2=Don't Let It Hit You on the Way Out
EXTD=
EXTT0=
EXTT1=
EXTT2=
PLAYORDER=
